<svg width="17" height="20" viewBox="0 0 17 20" fill="none" xmlns="http://www.w3.org/2000/svg">
<path fill-rule="evenodd" clip-rule="evenodd" d="M8.34821 19.884C7.81064 19.884 7.35212 19.6864 6.97266 19.2911C6.59319 18.8958 6.40346 18.4294 6.40346 17.8918H10.293C10.293 18.4294 10.1032 18.8958 9.72377 19.2911C9.34431 19.6864 8.88579 19.884 8.34821 19.884ZM14.7517 13.9549L16.6964 15.9471V16.9431H0V15.9471L1.94475 13.9549V8.5475C1.94475 7.06127 2.41118 5.74105 3.34403 4.58684C4.27688 3.43264 5.4548 2.68162 6.87779 2.33377V1.62228C6.87779 1.21119 7.01218 0.863351 7.28097 0.578753C7.54976 0.294154 7.90551 0.151855 8.34821 0.151855C8.79092 0.151855 9.14667 0.294154 9.41546 0.578753C9.68425 0.863351 9.81864 1.21119 9.81864 1.62228V2.33377C11.2416 2.68162 12.4195 3.43264 13.3524 4.58684C14.2852 5.74105 14.7517 7.06127 14.7517 8.5475V13.9549Z" fill="#323332"/>
</svg>
