<svg width="20" height="20" viewBox="0 0 20 20" fill="none" xmlns="http://www.w3.org/2000/svg">
<path fill-rule="evenodd" clip-rule="evenodd" d="M13.9606 12.2792L19.5652 17.8838L17.8838 19.5652L12.3302 13.9606V13.0944L11.9735 12.7887C10.6148 13.9436 9.03533 14.5211 7.23505 14.5211C5.23098 14.5211 3.52412 13.8162 2.11447 12.4066C0.704823 10.9969 0 9.29008 0 7.28601C0 5.28193 0.704823 3.56658 2.11447 2.13995C3.52412 0.713315 5.21399 0 7.1841 0C9.18818 0 10.895 0.713315 12.3047 2.13995C13.7143 3.56658 14.4192 5.28193 14.4192 7.28601C14.4192 9.08628 13.8417 10.6658 12.6868 12.0245L13.0435 12.2792H13.9606ZM7.23505 12.2792C8.62772 12.2792 9.81658 11.7952 10.8016 10.8271C11.7867 9.85904 12.2792 8.67867 12.2792 7.28601C12.2792 5.89334 11.7867 4.70448 10.8016 3.71943C9.81658 2.73437 8.62772 2.24185 7.23505 2.24185C5.84239 2.24185 4.66202 2.73437 3.69395 3.71943C2.72588 4.70448 2.24185 5.89334 2.24185 7.28601C2.24185 8.67867 2.72588 9.85904 3.69395 10.8271C4.66202 11.7952 5.84239 12.2792 7.23505 12.2792Z" fill="#323332"/>
</svg>
